<svg width="96" height="92" viewBox="0 0 96 92" fill="none" xmlns="http://www.w3.org/2000/svg">
<path d="M47.9999 0C21.9639 0 0.159912 18.6944 0.159912 42.32C0.159912 53.4704 5.16103 63.4726 13.0399 70.9541C12.0819 73.4576 10.7221 75.7882 9.01399 77.8541C6.75004 80.6001 4.24905 83.1417 1.53991 85.4496C0.945652 85.9264 0.514015 86.5758 0.304569 87.3083C0.0951234 88.0408 0.118195 88.8203 0.370599 89.5392C0.623003 90.258 1.0923 90.8808 1.71371 91.3216C2.33513 91.7624 3.07804 91.9994 3.83991 92C11.9911 92 17.8534 91.908 23.1599 90.5059C27.9071 89.2474 31.9882 86.6125 36.154 82.9141C39.9444 83.823 43.8562 84.64 47.9999 84.64C74.0359 84.64 95.8399 65.9456 95.8399 42.32C95.8399 18.6944 74.0359 0 47.9999 0ZM47.9999 7.36C70.5399 7.36 88.4799 23.2576 88.4799 42.32C88.4799 61.3824 70.5399 77.28 47.9999 77.28C43.9924 77.28 39.8303 76.5882 36.0399 75.5541C35.4338 75.4017 34.7988 75.4062 34.1949 75.5671C33.5909 75.7281 33.038 76.0402 32.5881 76.4741C28.4481 80.4448 25.3974 82.2958 21.3199 83.3741C19.4431 83.8709 15.822 83.7531 13.2681 83.9518C13.7833 83.3704 14.2654 83.0613 14.7658 82.4541C17.6583 78.9213 20.2969 75.1861 21.0918 70.9541C21.2012 70.3188 21.1419 69.6659 20.9198 69.0608C20.6976 68.4556 20.3204 67.9194 19.8258 67.5059C12.1162 61.1395 7.51991 52.2155 7.51991 42.32C7.51991 23.2576 25.4599 7.36 47.9999 7.36ZM40.9858 21.7341C40.3381 21.8795 39.7417 22.1973 39.2599 22.6541L33.7399 27.8318L38.6858 33.2341L43.054 29.0941H51.9081L55.3599 33.0096V38.4155L45.9281 44.7378C45.4239 45.0811 45.013 45.5443 44.7323 46.0858C44.4516 46.6273 44.3099 47.2301 44.3199 47.84V55.2H51.6799V49.9082L61.1118 43.5859C61.6164 43.2423 62.0277 42.7784 62.3084 42.2362C62.5891 41.694 62.7306 41.0905 62.7199 40.48V31.6259C62.7151 30.7365 62.3882 29.8789 61.7999 29.2118L56.2799 23C55.9364 22.6048 55.5125 22.2874 55.0366 22.0691C54.5606 21.8508 54.0435 21.7366 53.5199 21.7341H41.7881C41.5215 21.7048 41.2524 21.7048 40.9858 21.7341ZM44.3199 58.88V66.24H51.6799V58.88H44.3199Z" fill="white"/>
</svg>
