<svg width="185" height="71" viewBox="0 0 185 71" fill="none" xmlns="http://www.w3.org/2000/svg">
<path d="M29.2998 26.576C27.2838 26.576 25.4118 26.264 23.6838 25.64C21.9798 24.992 20.4918 24.08 19.2198 22.904C17.9718 21.728 16.9998 20.336 16.3038 18.728C15.6078 17.12 15.2598 15.344 15.2598 13.4C15.2598 11.456 15.6078 9.68 16.3038 8.072C16.9998 6.464 17.9718 5.072 19.2198 3.896C20.4918 2.72 21.9798 1.82 23.6838 1.196C25.4118 0.547999 27.2838 0.223999 29.2998 0.223999C31.7718 0.223999 33.9558 0.655999 35.8518 1.52C37.7718 2.384 39.3558 3.632 40.6038 5.264L35.2398 10.052C34.4958 9.116 33.6678 8.396 32.7558 7.892C31.8678 7.364 30.8598 7.1 29.7318 7.1C28.8438 7.1 28.0398 7.244 27.3198 7.532C26.5998 7.82 25.9758 8.24 25.4478 8.792C24.9438 9.344 24.5478 10.016 24.2598 10.808C23.9718 11.576 23.8278 12.44 23.8278 13.4C23.8278 14.36 23.9718 15.236 24.2598 16.028C24.5478 16.796 24.9438 17.456 25.4478 18.008C25.9758 18.56 26.5998 18.98 27.3198 19.268C28.0398 19.556 28.8438 19.7 29.7318 19.7C30.8598 19.7 31.8678 19.448 32.7558 18.944C33.6678 18.416 34.4958 17.684 35.2398 16.748L40.6038 21.536C39.3558 23.144 37.7718 24.392 35.8518 25.28C33.9558 26.144 31.7718 26.576 29.2998 26.576Z" fill="#F7F7F7"/>
<path d="M55.7415 26.576C53.7015 26.576 51.8055 26.252 50.0535 25.604C48.3255 24.956 46.8255 24.044 45.5535 22.868C44.2815 21.668 43.2855 20.264 42.5655 18.656C41.8695 17.048 41.5215 15.296 41.5215 13.4C41.5215 11.48 41.8695 9.728 42.5655 8.144C43.2855 6.536 44.2815 5.144 45.5535 3.968C46.8255 2.768 48.3255 1.844 50.0535 1.196C51.8055 0.547999 53.7015 0.223999 55.7415 0.223999C57.8055 0.223999 59.7015 0.547999 61.4295 1.196C63.1575 1.844 64.6575 2.768 65.9295 3.968C67.2015 5.144 68.1855 6.536 68.8815 8.144C69.6015 9.728 69.9615 11.48 69.9615 13.4C69.9615 15.296 69.6015 17.048 68.8815 18.656C68.1855 20.264 67.2015 21.668 65.9295 22.868C64.6575 24.044 63.1575 24.956 61.4295 25.604C59.7015 26.252 57.8055 26.576 55.7415 26.576ZM55.7415 19.7C56.5335 19.7 57.2655 19.556 57.9375 19.268C58.6335 18.98 59.2335 18.572 59.7375 18.044C60.2655 17.492 60.6735 16.832 60.9615 16.064C61.2495 15.272 61.3935 14.384 61.3935 13.4C61.3935 12.416 61.2495 11.54 60.9615 10.772C60.6735 9.98 60.2655 9.32 59.7375 8.792C59.2335 8.24 58.6335 7.82 57.9375 7.532C57.2655 7.244 56.5335 7.1 55.7415 7.1C54.9495 7.1 54.2055 7.244 53.5095 7.532C52.8375 7.82 52.2375 8.24 51.7095 8.792C51.2055 9.32 50.8095 9.98 50.5215 10.772C50.2335 11.54 50.0895 12.416 50.0895 13.4C50.0895 14.384 50.2335 15.272 50.5215 16.064C50.8095 16.832 51.2055 17.492 51.7095 18.044C52.2375 18.572 52.8375 18.98 53.5095 19.268C54.2055 19.556 54.9495 19.7 55.7415 19.7Z" fill="#F7F7F7"/>
<path d="M73.0451 26V0.799998H85.4651C88.2731 0.799998 90.7451 1.316 92.8811 2.348C95.0171 3.356 96.6851 4.796 97.8851 6.668C99.0851 8.54 99.6851 10.772 99.6851 13.364C99.6851 15.98 99.0851 18.236 97.8851 20.132C96.6851 22.004 95.0171 23.456 92.8811 24.488C90.7451 25.496 88.2731 26 85.4651 26H73.0451ZM81.5411 19.376H85.1051C86.3051 19.376 87.3491 19.148 88.2371 18.692C89.1491 18.236 89.8571 17.564 90.3611 16.676C90.8651 15.764 91.1171 14.66 91.1171 13.364C91.1171 12.092 90.8651 11.012 90.3611 10.124C89.8571 9.236 89.1491 8.564 88.2371 8.108C87.3491 7.652 86.3051 7.424 85.1051 7.424H81.5411V19.376Z" fill="#F7F7F7"/>
<path d="M102.787 26V0.799998H111.283V26H102.787Z" fill="#F7F7F7"/>
<path d="M115.373 26V0.799998H122.357L135.173 16.136H131.933V0.799998H140.213V26H133.229L120.413 10.664H123.653V26H115.373Z" fill="#F7F7F7"/>
<path d="M157.375 26.576C155.335 26.576 153.451 26.264 151.723 25.64C150.019 24.992 148.531 24.08 147.259 22.904C146.011 21.728 145.039 20.336 144.343 18.728C143.647 17.12 143.299 15.344 143.299 13.4C143.299 11.456 143.647 9.68 144.343 8.072C145.039 6.464 146.023 5.072 147.295 3.896C148.567 2.72 150.067 1.82 151.795 1.196C153.547 0.547999 155.467 0.223999 157.555 0.223999C160.051 0.223999 162.271 0.643999 164.215 1.484C166.183 2.324 167.803 3.524 169.075 5.084L163.639 9.872C162.847 8.96 161.983 8.276 161.047 7.82C160.135 7.34 159.115 7.1 157.987 7.1C157.051 7.1 156.199 7.244 155.431 7.532C154.687 7.82 154.051 8.24 153.523 8.792C152.995 9.344 152.587 10.004 152.299 10.772C152.011 11.54 151.867 12.416 151.867 13.4C151.867 14.336 152.011 15.2 152.299 15.992C152.587 16.76 152.995 17.42 153.523 17.972C154.051 18.524 154.675 18.956 155.395 19.268C156.139 19.556 156.967 19.7 157.879 19.7C158.839 19.7 159.775 19.544 160.687 19.232C161.599 18.896 162.571 18.332 163.603 17.54L168.355 23.372C166.819 24.404 165.067 25.196 163.099 25.748C161.131 26.3 159.223 26.576 157.375 26.576ZM160.975 22.292V12.716H168.355V23.372L160.975 22.292Z" fill="#F7F7F7"/>
<path d="M14.0947 70.576C12.0787 70.576 10.2067 70.264 8.47869 69.64C6.77469 68.992 5.28669 68.08 4.01469 66.904C2.76669 65.728 1.79469 64.336 1.09869 62.728C0.402687 61.12 0.0546875 59.344 0.0546875 57.4C0.0546875 55.456 0.402687 53.68 1.09869 52.072C1.79469 50.464 2.76669 49.072 4.01469 47.896C5.28669 46.72 6.77469 45.82 8.47869 45.196C10.2067 44.548 12.0787 44.224 14.0947 44.224C16.5667 44.224 18.7507 44.656 20.6467 45.52C22.5667 46.384 24.1507 47.632 25.3987 49.264L20.0347 54.052C19.2907 53.116 18.4627 52.396 17.5507 51.892C16.6627 51.364 15.6547 51.1 14.5267 51.1C13.6387 51.1 12.8347 51.244 12.1147 51.532C11.3947 51.82 10.7707 52.24 10.2427 52.792C9.73869 53.344 9.34269 54.016 9.05469 54.808C8.76669 55.576 8.62269 56.44 8.62269 57.4C8.62269 58.36 8.76669 59.236 9.05469 60.028C9.34269 60.796 9.73869 61.456 10.2427 62.008C10.7707 62.56 11.3947 62.98 12.1147 63.268C12.8347 63.556 13.6387 63.7 14.5267 63.7C15.6547 63.7 16.6627 63.448 17.5507 62.944C18.4627 62.416 19.2907 61.684 20.0347 60.748L25.3987 65.536C24.1507 67.144 22.5667 68.392 20.6467 69.28C18.7507 70.144 16.5667 70.576 14.0947 70.576Z" fill="#F7F7F7"/>
<path d="M27.8517 70V44.8H39.9837C42.3357 44.8 44.3637 45.184 46.0677 45.952C47.7957 46.72 49.1278 47.824 50.0638 49.264C50.9998 50.68 51.4678 52.36 51.4678 54.304C51.4678 56.248 50.9998 57.928 50.0638 59.344C49.1278 60.736 47.7957 61.804 46.0677 62.548C44.3637 63.292 42.3357 63.664 39.9837 63.664H32.5677L36.3478 60.172V70H27.8517ZM42.9357 70L36.7438 60.82H45.7438L52.0078 70H42.9357ZM36.3478 61.108L32.5677 57.256H39.4437C40.6197 57.256 41.4838 56.992 42.0358 56.464C42.6118 55.936 42.8997 55.216 42.8997 54.304C42.8997 53.392 42.6118 52.672 42.0358 52.144C41.4838 51.616 40.6197 51.352 39.4437 51.352H32.5677L36.3478 47.5V61.108Z" fill="#F7F7F7"/>
<path d="M62.452 54.16H73.684V60.28H62.452V54.16ZM63.028 63.592H75.628V70H54.676V44.8H75.16V51.208H63.028V63.592Z" fill="#F7F7F7"/>
<path d="M76.1626 70L87.1786 44.8H95.5306L106.547 70H97.7626L89.6266 48.832H92.9386L84.8026 70H76.1626ZM82.7146 65.608L84.8746 59.488H96.4666L98.6266 65.608H82.7146Z" fill="#F7F7F7"/>
<path d="M112.109 70V51.388H104.729V44.8H127.985V51.388H120.605V70H112.109Z" fill="#F7F7F7"/>
<path d="M143.052 70.576C141.012 70.576 139.116 70.252 137.364 69.604C135.636 68.956 134.136 68.044 132.864 66.868C131.592 65.668 130.596 64.264 129.876 62.656C129.18 61.048 128.832 59.296 128.832 57.4C128.832 55.48 129.18 53.728 129.876 52.144C130.596 50.536 131.592 49.144 132.864 47.968C134.136 46.768 135.636 45.844 137.364 45.196C139.116 44.548 141.012 44.224 143.052 44.224C145.116 44.224 147.012 44.548 148.74 45.196C150.468 45.844 151.968 46.768 153.24 47.968C154.512 49.144 155.496 50.536 156.192 52.144C156.912 53.728 157.272 55.48 157.272 57.4C157.272 59.296 156.912 61.048 156.192 62.656C155.496 64.264 154.512 65.668 153.24 66.868C151.968 68.044 150.468 68.956 148.74 69.604C147.012 70.252 145.116 70.576 143.052 70.576ZM143.052 63.7C143.844 63.7 144.576 63.556 145.248 63.268C145.944 62.98 146.544 62.572 147.048 62.044C147.576 61.492 147.984 60.832 148.272 60.064C148.56 59.272 148.704 58.384 148.704 57.4C148.704 56.416 148.56 55.54 148.272 54.772C147.984 53.98 147.576 53.32 147.048 52.792C146.544 52.24 145.944 51.82 145.248 51.532C144.576 51.244 143.844 51.1 143.052 51.1C142.26 51.1 141.516 51.244 140.82 51.532C140.148 51.82 139.548 52.24 139.02 52.792C138.516 53.32 138.12 53.98 137.832 54.772C137.544 55.54 137.4 56.416 137.4 57.4C137.4 58.384 137.544 59.272 137.832 60.064C138.12 60.832 138.516 61.492 139.02 62.044C139.548 62.572 140.148 62.98 140.82 63.268C141.516 63.556 142.26 63.7 143.052 63.7Z" fill="#F7F7F7"/>
<path d="M160.356 70V44.8H172.488C174.84 44.8 176.868 45.184 178.572 45.952C180.3 46.72 181.632 47.824 182.568 49.264C183.504 50.68 183.972 52.36 183.972 54.304C183.972 56.248 183.504 57.928 182.568 59.344C181.632 60.736 180.3 61.804 178.572 62.548C176.868 63.292 174.84 63.664 172.488 63.664H165.072L168.852 60.172V70H160.356ZM175.44 70L169.248 60.82H178.248L184.512 70H175.44ZM168.852 61.108L165.072 57.256H171.948C173.124 57.256 173.988 56.992 174.54 56.464C175.116 55.936 175.404 55.216 175.404 54.304C175.404 53.392 175.116 52.672 174.54 52.144C173.988 51.616 173.124 51.352 171.948 51.352H165.072L168.852 47.5V61.108Z" fill="#F7F7F7"/>
</svg>
