<svg width="44" height="44" viewBox="0 0 44 44" fill="none" xmlns="http://www.w3.org/2000/svg">
<path d="M37.9634 26.9566C37.7522 25.4892 36.6192 24.3452 35.1606 24.0042C29.4912 22.6754 28.07 19.4106 27.8302 15.7894C26.8248 15.6024 25.0362 15.4 22.0002 15.4C18.9642 15.4 17.1756 15.6024 16.1702 15.7894C15.9304 19.4106 14.5092 22.6754 8.83979 24.0042C7.38119 24.3474 6.24819 25.4892 6.03699 26.9566L4.94359 34.529C4.55859 37.1954 6.51658 39.6 9.24018 39.6H34.7602C37.4816 39.6 39.4418 37.1954 39.0568 34.529L37.9634 26.9566ZM22.0002 34.0824C18.9312 34.0824 16.443 31.6184 16.443 28.5824C16.443 25.5464 18.9312 23.0824 22.0002 23.0824C25.0692 23.0824 27.5574 25.5464 27.5574 28.5824C27.5574 31.6184 25.067 34.0824 22.0002 34.0824ZM43.8902 13.2C43.8374 9.90002 35.4378 4.40222 22.0002 4.40002C8.56038 4.40222 0.160785 9.90002 0.110185 13.2C0.0595851 16.5 0.156385 20.7944 5.68719 20.0794C12.1574 19.2412 11.7592 16.9818 11.7592 13.7522C11.7592 11.4994 17.0216 10.956 22.0002 10.956C26.9788 10.956 32.239 11.4994 32.2412 13.7522C32.2412 16.9818 31.843 19.2412 38.3132 20.0794C43.8418 20.7944 43.9408 16.5 43.8902 13.2Z" fill="white"/>
</svg>
