<svg width="94" height="94" viewBox="0 0 94 94" fill="none" xmlns="http://www.w3.org/2000/svg">
<path d="M77.2143 70.5H89.8036C90.0262 70.5 90.2397 70.5884 90.3971 70.7458C90.5545 70.9032 90.6429 71.1167 90.6429 71.3393V73.8571C90.6429 75.712 85.7834 77.2143 83.9286 77.2143H10.0715C8.21664 77.2143 3.35718 75.712 3.35718 73.8571V71.3393C3.35718 71.1167 3.4456 70.9032 3.603 70.7458C3.7604 70.5884 3.97387 70.5 4.19646 70.5H16.7857C15.005 70.5 13.2972 69.7926 12.038 68.5334C10.7789 67.2742 10.0715 65.5664 10.0715 63.7857V23.5C10.0715 21.7193 10.7789 20.0114 12.038 18.7523C13.2972 17.4931 15.005 16.7857 16.7857 16.7857H77.2143C78.9951 16.7857 80.7029 17.4931 81.962 18.7523C83.2212 20.0114 83.9286 21.7193 83.9286 23.5V63.7857C83.9286 65.5664 83.2212 67.2742 81.962 68.5334C80.7029 69.7926 78.9951 70.5 77.2143 70.5ZM16.7857 25.1786V62.1071C16.7857 62.5523 16.9626 62.9793 17.2774 63.2941C17.5922 63.6089 18.0191 63.7857 18.4643 63.7857H75.5358C75.9809 63.7857 76.4079 63.6089 76.7227 63.2941C77.0375 62.9793 77.2143 62.5523 77.2143 62.1071V25.1786C77.2143 24.7334 77.0375 24.3064 76.7227 23.9916C76.4079 23.6768 75.9809 23.5 75.5358 23.5H18.4643C18.0191 23.5 17.5922 23.6768 17.2774 23.9916C16.9626 24.3064 16.7857 24.7334 16.7857 25.1786ZM40.2858 68.8214C39.8406 68.8214 39.4136 68.9983 39.0988 69.3131C38.784 69.6278 38.6072 70.0548 38.6072 70.5C38.6072 70.9452 38.784 71.3721 39.0988 71.6869C39.4136 72.0017 39.8406 72.1786 40.2858 72.1786H53.7143C54.1595 72.1786 54.5865 72.0017 54.9013 71.6869C55.216 71.3721 55.3929 70.9452 55.3929 70.5C55.3929 70.0548 55.216 69.6278 54.9013 69.3131C54.5865 68.9983 54.1595 68.8214 53.7143 68.8214H40.2858Z" fill="white"/>
</svg>
