<svg width="60" height="60" viewBox="0 0 60 60" fill="none" xmlns="http://www.w3.org/2000/svg">
<path d="M33.8379 56.25L37.5879 60H7.5V7.5H22.5C22.5 6.46484 22.6953 5.49805 23.0859 4.59961C23.4766 3.70117 24.0137 2.90039 24.6973 2.19727C25.3809 1.49414 26.1719 0.957031 27.0703 0.585938C27.9688 0.214844 28.9453 0.0195312 30 0C31.0352 0 32.002 0.195313 32.9004 0.585938C33.7988 0.976562 34.5996 1.51367 35.3027 2.19727C36.0059 2.88086 36.543 3.67188 36.9141 4.57031C37.2852 5.46875 37.4805 6.44531 37.5 7.5H52.5V37.5879L48.75 41.3379V11.25H45V18.75H15V11.25H11.25V56.25H33.8379ZM18.75 11.25V15H41.25V11.25H33.75V7.5C33.75 6.97266 33.6523 6.48438 33.457 6.03516C33.2617 5.58594 32.998 5.19531 32.666 4.86328C32.334 4.53125 31.9336 4.25781 31.4648 4.04297C30.9961 3.82812 30.5078 3.73047 30 3.75C29.4727 3.75 28.9844 3.84766 28.5352 4.04297C28.0859 4.23828 27.6953 4.50195 27.3633 4.83398C27.0312 5.16602 26.7578 5.56641 26.543 6.03516C26.3281 6.50391 26.2305 6.99219 26.25 7.5V11.25H18.75ZM59.4434 42.5684L43.125 58.916L35.2441 51.0059L37.8809 48.3691L43.125 53.584L56.8066 39.9316L59.4434 42.5684Z" fill="white"/>
</svg>
