<svg width="69" height="69" viewBox="0 0 69 69" fill="none" xmlns="http://www.w3.org/2000/svg">
<path d="M10.7812 12.9375V42.1827L5.86284 47.1723C4.87713 48.153 4.31974 49.4841 4.3125 50.8746C4.32042 52.248 4.86955 53.563 5.84077 54.5342C6.81198 55.5054 8.12696 56.0546 9.50044 56.0625H59.4996C60.873 56.0546 62.188 55.5054 63.1592 54.5342C64.1304 53.563 64.6796 52.248 64.6875 50.8746C64.6791 49.4831 64.1219 48.1511 63.1372 47.168L58.2188 42.1806V12.9375H10.7812ZM15.0938 17.25H53.9062V40.9688H15.0938V17.25ZM34.5 19.4062L31.2656 38.8125H34.5L37.7344 19.4062H34.5ZM26.0604 23.7188L22.3538 28.1779L21.5625 29.1094L22.3538 30.0409L26.0604 34.5L28.4021 32.6392L25.4653 29.1094L28.3978 25.5796L26.0604 23.7188ZM42.9396 23.7188L40.5979 25.5796L43.5347 29.1094L40.6022 32.6392L42.9417 34.5L46.6483 30.0409L47.4375 29.1094L46.6462 28.1779L42.9396 23.7188ZM13.8798 45.2812H55.1181L60.1055 50.1997C60.2775 50.3824 60.3738 50.6236 60.375 50.8746C60.3812 50.9912 60.3628 51.1078 60.321 51.2168C60.2792 51.3258 60.215 51.4248 60.1324 51.5074C60.0498 51.59 59.9508 51.6542 59.8418 51.696C59.7328 51.7378 59.6162 51.7562 59.4996 51.75H9.50044C9.38384 51.7562 9.26724 51.7378 9.15821 51.696C9.04918 51.6542 8.95016 51.59 8.8676 51.5074C8.78503 51.4248 8.72076 51.3258 8.67897 51.2168C8.63717 51.1078 8.61878 50.9912 8.625 50.8746C8.625 50.6374 8.72634 50.37 8.89453 50.1997L13.8798 45.2812Z" fill="white"/>
</svg>
