<svg width="56" height="55" viewBox="0 0 56 55" fill="none" xmlns="http://www.w3.org/2000/svg">
<path d="M48.6502 25.4605V16.0417C48.6502 14.8262 48.1621 13.6604 47.2934 12.8008C46.4247 11.9413 45.2464 11.4584 44.0178 11.4584H34.7531V6.87508C34.7531 5.65951 34.2651 4.49372 33.3963 3.63418C32.5276 2.77463 31.3494 2.29175 30.1208 2.29175H20.8561C19.6275 2.29175 18.4492 2.77463 17.5805 3.63418C16.7118 4.49372 16.2237 5.65951 16.2237 6.87508V11.4584H6.95901C5.73044 11.4584 4.55218 11.9413 3.68344 12.8008C2.81471 13.6604 2.32666 14.8262 2.32666 16.0417V41.2501C2.32666 42.4657 2.81471 43.6314 3.68344 44.491C4.55218 45.3505 5.73044 45.8334 6.95901 45.8334H23.7745C25.0476 47.6731 26.6943 49.23 28.6095 50.4048C30.5248 51.5795 32.6665 52.3464 34.898 52.6564C37.1296 52.9664 39.4019 52.8127 41.5701 52.2052C43.7383 51.5977 45.7546 50.5496 47.4905 49.128C49.2264 47.7063 50.6437 45.9422 51.652 43.9482C52.6603 41.9543 53.2374 39.7743 53.3465 37.5473C53.4556 35.3203 53.0944 33.0953 52.2857 31.0142C51.4771 28.9331 50.2389 27.0416 48.6502 25.4605ZM20.8561 6.87508H30.1208V11.4584H20.8561M44.0178 45.8334C42.0132 47.321 39.5751 48.1251 37.0693 48.1251C34.5635 48.1251 32.1254 47.321 30.1208 45.8334C28.1763 44.3905 26.7399 42.3788 26.0152 40.0833C25.2905 37.7877 25.3141 35.3248 26.0827 33.0433C26.8513 30.7618 28.326 28.7774 30.2978 27.3713C32.2697 25.9651 34.6387 25.2084 37.0693 25.2084C39.4999 25.2084 41.8689 25.9651 43.8408 27.3713C45.8126 28.7774 47.2873 30.7618 48.0559 33.0433C48.8245 35.3248 48.8481 37.7877 48.1234 40.0833C47.3987 42.3788 45.9623 44.3905 44.0178 45.8334ZM34.7531 29.7917H38.2274V36.2542L43.8789 39.4855L42.1417 42.4647L34.7531 38.248V29.7917Z" fill="white"/>
</svg>
