<svg width="81" height="81" viewBox="0 0 81 81" fill="none" xmlns="http://www.w3.org/2000/svg">
<path d="M37.125 47.25H30.375C30.375 39.194 33.5752 31.468 39.2716 25.7716C44.968 20.0752 52.694 16.875 60.75 16.875V23.625C47.6888 23.625 37.125 34.1888 37.125 47.25ZM60.75 37.125V30.375C51.435 30.375 43.875 37.935 43.875 47.25H50.625C50.625 41.6475 55.1475 37.125 60.75 37.125ZM23.625 13.5C23.625 9.75375 20.6213 6.75 16.875 6.75C13.1287 6.75 10.125 9.75375 10.125 13.5C10.125 17.2463 13.1287 20.25 16.875 20.25C20.6213 20.25 23.625 17.2463 23.625 13.5ZM38.6437 15.1875H31.8937C31.5085 17.548 30.2946 19.694 28.47 21.2404C26.6453 22.7867 24.3293 23.6322 21.9375 23.625H11.8125C9.01125 23.625 6.75 25.8862 6.75 28.6875V37.125H27V29.4975C30.1248 28.5075 32.8919 26.6254 34.9607 24.0828C37.0295 21.5403 38.3098 18.4483 38.6437 15.1875ZM64.125 57.375C67.8713 57.375 70.875 54.3713 70.875 50.625C70.875 46.8787 67.8713 43.875 64.125 43.875C60.3787 43.875 57.375 46.8787 57.375 50.625C57.375 54.3713 60.3787 57.375 64.125 57.375ZM69.1875 60.75H59.0625C54 60.75 49.9163 57.105 49.1063 52.3125H42.3563C43.0312 59.0625 47.7225 64.6312 54 66.6225V74.25H74.25V65.8125C74.25 63.0112 71.9887 60.75 69.1875 60.75Z" fill="white"/>
</svg>
