<svg width="83" height="83" viewBox="0 0 83 83" fill="none" xmlns="http://www.w3.org/2000/svg">
<path d="M38.0417 20.75H48.4167L59.7946 9.3375C60.1161 9.01335 60.4986 8.75607 60.92 8.5805C61.3415 8.40492 61.7935 8.31453 62.25 8.31453C62.7066 8.31453 63.1586 8.40492 63.58 8.5805C64.0015 8.75607 64.384 9.01335 64.7054 9.3375L73.628 18.2946C74.2721 18.9425 74.6336 19.8191 74.6336 20.7327C74.6336 21.6463 74.2721 22.5229 73.628 23.1708L65.7084 31.125H38.0417V38.0417C38.0417 38.9589 37.6773 39.8385 37.0288 40.4871C36.3802 41.1356 35.5006 41.5 34.5834 41.5C33.6662 41.5 32.7865 41.1356 32.138 40.4871C31.4894 39.8385 31.125 38.9589 31.125 38.0417V27.6667C31.125 25.8323 31.8538 24.073 33.1509 22.7758C34.448 21.4787 36.2073 20.75 38.0417 20.75ZM17.2917 38.0417V51.875L9.37211 59.7946C8.728 60.4426 8.36646 61.3191 8.36646 62.2327C8.36646 63.1464 8.728 64.0229 9.37211 64.6708L18.2946 73.6279C18.6161 73.9521 18.9986 74.2093 19.42 74.3849C19.8415 74.5605 20.2935 74.6509 20.75 74.6509C21.2066 74.6509 21.6586 74.5605 22.08 74.3849C22.5015 74.2093 22.8839 73.9521 23.2054 73.6279L38.0417 58.7917H51.875C52.7922 58.7917 53.6719 58.4273 54.3204 57.7787C54.969 57.1302 55.3334 56.2505 55.3334 55.3333V51.875H58.7917C59.7089 51.875 60.5885 51.5106 61.2371 50.8621C61.8857 50.2135 62.25 49.3339 62.25 48.4167V44.9583H65.7084C66.6256 44.9583 67.5052 44.594 68.1538 43.9454C68.8023 43.2968 69.1667 42.4172 69.1667 41.5V38.0417H44.9584V41.5C44.9584 43.3344 44.2296 45.0937 42.9325 46.3908C41.6354 47.6879 39.8761 48.4167 38.0417 48.4167H31.125C29.2906 48.4167 27.5313 47.6879 26.2342 46.3908C24.9371 45.0937 24.2084 43.3344 24.2084 41.5V31.125L17.2917 38.0417Z" fill="white"/>
</svg>
