<svg width="30" height="31" viewBox="0 0 30 31" fill="none" xmlns="http://www.w3.org/2000/svg">
<path fill-rule="evenodd" clip-rule="evenodd" d="M13.1251 3C11.4308 3.00014 9.76115 3.40546 8.25539 4.18212C6.74963 4.95878 5.45144 6.08427 4.46912 7.46469C3.4868 8.84511 2.84884 10.4404 2.60846 12.1176C2.36808 13.7947 2.53226 15.505 3.0873 17.1057C3.64233 18.7065 4.57213 20.1513 5.79912 21.3197C7.02611 22.488 8.5147 23.346 10.1407 23.822C11.7667 24.298 13.483 24.3783 15.1463 24.0561C16.8097 23.734 18.3719 23.0187 19.7026 21.97L24.2676 26.535C24.5033 26.7627 24.8191 26.8887 25.1468 26.8858C25.4746 26.883 25.7881 26.7515 26.0198 26.5198C26.2516 26.288 26.3831 25.9745 26.3859 25.6467C26.3888 25.319 26.2628 25.0033 26.0351 24.7675L21.4701 20.2025C22.7051 18.6358 23.474 16.753 23.6889 14.7697C23.9039 12.7863 23.5561 10.7825 22.6854 8.98762C21.8146 7.19271 20.4562 5.67919 18.7654 4.62029C17.0747 3.56138 15.12 2.99987 13.1251 3ZM5.00007 13.625C5.00007 11.4701 5.8561 9.40349 7.37983 7.87976C8.90356 6.35602 10.9702 5.5 13.1251 5.5C15.28 5.5 17.3466 6.35602 18.8703 7.87976C20.394 9.40349 21.2501 11.4701 21.2501 13.625C21.2501 15.7799 20.394 17.8465 18.8703 19.3702C17.3466 20.894 15.28 21.75 13.1251 21.75C10.9702 21.75 8.90356 20.894 7.37983 19.3702C5.8561 17.8465 5.00007 15.7799 5.00007 13.625Z" fill="white"/>
</svg>
