<svg width="69" height="69" viewBox="0 0 69 69" fill="none" xmlns="http://www.w3.org/2000/svg">
<path d="M62.5312 29.1094H37.7344V24.7969H38.8125C39.5204 24.7969 40.2214 24.6574 40.8754 24.3865C41.5294 24.1156 42.1237 23.7186 42.6242 23.218C43.1248 22.7174 43.5219 22.1232 43.7928 21.4692C44.0637 20.8151 44.2031 20.1142 44.2031 19.4062V10.7812C44.2031 10.0733 44.0637 9.37237 43.7928 8.71835C43.5219 8.06433 43.1248 7.47007 42.6242 6.9695C42.1237 6.46894 41.5294 6.07187 40.8754 5.80096C40.2214 5.53006 39.5204 5.39062 38.8125 5.39062H30.1875C28.7578 5.39062 27.3867 5.95856 26.3758 6.9695C25.3648 7.98044 24.7969 9.35157 24.7969 10.7812V19.4062C24.7969 20.1142 24.9363 20.8151 25.2072 21.4692C25.4781 22.1232 25.8752 22.7174 26.3758 23.218C27.3867 24.2289 28.7578 24.7969 30.1875 24.7969H31.2656V29.1094H6.46875C5.61094 29.1094 4.78826 29.4501 4.1817 30.0567C3.57514 30.6633 3.23438 31.4859 3.23438 32.3438C3.23438 33.2016 3.57514 34.0242 4.1817 34.6308C4.78826 35.2374 5.61094 35.5781 6.46875 35.5781H14.0156V42.0469H12.9375C11.5078 42.0469 10.1367 42.6148 9.12575 43.6258C8.11481 44.6367 7.54688 46.0078 7.54688 47.4375V56.0625C7.54688 57.4922 8.11481 58.8633 9.12575 59.8742C10.1367 60.8852 11.5078 61.4531 12.9375 61.4531H21.5625C22.9922 61.4531 24.3633 60.8852 25.3742 59.8742C26.3852 58.8633 26.9531 57.4922 26.9531 56.0625V47.4375C26.9531 46.0078 26.3852 44.6367 25.3742 43.6258C24.3633 42.6148 22.9922 42.0469 21.5625 42.0469H20.4844V35.5781H48.5156V42.0469H47.4375C46.0078 42.0469 44.6367 42.6148 43.6258 43.6258C42.6148 44.6367 42.0469 46.0078 42.0469 47.4375V56.0625C42.0469 57.4922 42.6148 58.8633 43.6258 59.8742C44.6367 60.8852 46.0078 61.4531 47.4375 61.4531H56.0625C57.4922 61.4531 58.8633 60.8852 59.8742 59.8742C60.8852 58.8633 61.4531 57.4922 61.4531 56.0625V47.4375C61.4531 46.0078 60.8852 44.6367 59.8742 43.6258C58.8633 42.6148 57.4922 42.0469 56.0625 42.0469H54.9844V35.5781H62.5312C63.3891 35.5781 64.2117 35.2374 64.8183 34.6308C65.4249 34.0242 65.7656 33.2016 65.7656 32.3438C65.7656 31.4859 65.4249 30.6633 64.8183 30.0567C64.2117 29.4501 63.3891 29.1094 62.5312 29.1094ZM31.2656 11.8594H37.7344V18.3281H31.2656V11.8594ZM20.4844 54.9844H14.0156V48.5156H20.4844V54.9844ZM54.9844 54.9844H48.5156V48.5156H54.9844V54.9844Z" fill="white"/>
</svg>
