<svg width="92" height="91" viewBox="0 0 92 91" fill="none" xmlns="http://www.w3.org/2000/svg">
<path d="M12.4853 16.945C16.8838 12.5456 22.7834 9.97242 29.0002 9.74176C35.217 9.51109 41.2911 11.64 46.0036 15.7013C50.7119 11.6468 56.7779 9.52025 62.9873 9.74749C69.1966 9.97472 75.091 12.5389 79.4903 16.9268C83.8897 21.3146 86.4693 27.2023 86.7128 33.411C86.9563 39.6197 84.8457 45.6913 80.8035 50.4102L51.3612 79.9473C50.0085 81.3005 48.1943 82.0923 46.2823 82.164C44.3704 82.2357 42.5019 81.5821 41.0517 80.3341L40.6346 79.9511L11.1961 50.4102C7.15602 45.6954 5.04441 39.6294 5.28342 33.425C5.52243 27.2206 8.09445 21.335 12.4853 16.945ZM17.8467 22.3064C14.746 25.4079 12.9587 29.5843 12.8556 33.9687C12.7525 38.3531 14.3416 42.6088 17.2931 45.8526L17.8467 46.4366L45.9998 74.5897L66.107 54.4749L52.7035 41.0751L48.6843 45.0943C46.5514 47.2282 43.6582 48.4274 40.6411 48.4281C37.624 48.4289 34.7302 47.231 32.5963 45.0981C30.4623 42.9652 29.2631 40.072 29.2624 37.0549C29.2617 34.0378 30.4596 31.144 32.5925 29.0101L40.5625 21.0362C37.391 18.504 33.4208 17.1853 29.3645 17.3166C25.3083 17.4479 21.4317 19.0208 18.4306 21.7528L17.8467 22.3064ZM50.0228 33.0292C50.7338 32.3184 51.698 31.9191 52.7035 31.9191C53.7089 31.9191 54.6731 32.3184 55.3842 33.0292L71.4684 49.1135L74.1529 46.4366C77.3055 43.2862 79.1003 39.0273 79.1535 34.5708C79.2067 30.1142 77.514 25.8137 74.4374 22.5891C71.3608 19.3644 67.1446 17.4715 62.6905 17.3152C58.2364 17.159 53.8979 18.7517 50.6029 21.7528L50.0228 22.3064L37.9577 34.3715C37.3005 35.0282 36.9073 35.9035 36.8528 36.831C36.7982 37.7585 37.0862 38.6738 37.6619 39.403L37.9577 39.7329C38.6144 40.3901 39.4897 40.7833 40.4172 40.8378C41.3447 40.8923 42.26 40.6044 42.9892 40.0286L43.3191 39.7329L50.0228 33.0292Z" fill="white"/>
</svg>
