<svg width="69" height="69" viewBox="0 0 69 69" fill="none" xmlns="http://www.w3.org/2000/svg">
<path d="M34.5 8.625C27.6375 8.625 21.0561 11.3511 16.2036 16.2036C11.3511 21.0561 8.625 27.6375 8.625 34.5C8.625 48.8865 19.3056 60.0789 33.5024 60.0789H33.511C33.3749 59.8527 33.2254 59.6112 33.0625 59.3544L33.005 59.2624C31.855 57.431 30.9637 55.0476 31.1276 52.4343C31.2972 49.726 32.5795 47.0982 35.1929 44.9132C38.1599 42.4321 41.699 42.3717 44.4446 42.4781C45.0618 42.505 45.6445 42.5337 46.1926 42.5644C48.3719 42.6823 50.0969 42.7771 51.7902 42.32C57.1147 40.8825 60.0731 37.3463 60.3808 32.7664C61.3036 19.0325 49.2056 8.625 34.5 8.625ZM2.875 34.5C2.875 17.0344 17.0344 2.875 34.5 2.875C51.5516 2.875 67.3267 15.1972 66.1192 33.1487C65.6219 40.526 60.6337 45.8879 53.2881 47.8687C50.6086 48.5932 47.7336 48.4236 45.5026 48.2943C45.0426 48.2636 44.6143 48.2406 44.2175 48.2253C41.5811 48.1218 40.0487 48.3489 38.8844 49.3206C37.3692 50.5885 36.9294 51.7931 36.8661 52.7936C36.7971 53.8861 37.1709 55.0821 37.8724 56.2005L37.95 56.3241C38.226 56.764 38.6285 57.3994 38.962 58.0635C39.307 58.7506 39.7613 59.8 39.7958 60.9759C39.8304 61.7378 39.6624 62.4952 39.3089 63.171C38.9553 63.8467 38.4289 64.4167 37.7833 64.8226C36.5614 65.6133 35.0261 65.8289 33.4995 65.8289C15.9448 65.8289 2.875 51.8707 2.875 34.5ZM28.0312 20.1365C28.0312 18.6115 28.6371 17.149 29.7154 16.0706C30.7937 14.9923 32.2563 14.3865 33.7812 14.3865C35.3062 14.3865 36.7688 14.9923 37.8471 16.0706C38.9254 17.149 39.5313 18.6115 39.5312 20.1365C39.5313 21.6615 38.9254 23.124 37.8471 24.2024C36.7688 25.2807 35.3062 25.8865 33.7812 25.8865C32.2563 25.8865 30.7937 25.2807 29.7154 24.2024C28.6371 23.124 28.0312 21.6615 28.0312 20.1365ZM14.4613 28.7615C14.4613 27.2365 15.0671 25.774 16.1454 24.6956C17.2237 23.6173 18.6863 23.0115 20.2113 23.0115C21.7362 23.0115 23.1988 23.6173 24.2771 24.6956C25.3554 25.774 25.9612 27.2365 25.9612 28.7615C25.9612 30.2865 25.3554 31.749 24.2771 32.8274C23.1988 33.9057 21.7362 34.5115 20.2113 34.5115C18.6863 34.5115 17.2237 33.9057 16.1454 32.8274C15.0671 31.749 14.4613 30.2865 14.4613 28.7615ZM41.7392 28.7615C41.7392 27.2365 42.3451 25.774 43.4234 24.6956C44.5017 23.6173 45.9643 23.0115 47.4892 23.0115C49.0142 23.0115 50.4768 23.6173 51.5551 24.6956C52.6334 25.774 53.2392 27.2365 53.2392 28.7615C53.2392 30.2865 52.6334 31.749 51.5551 32.8274C50.4768 33.9057 49.0142 34.5115 47.4892 34.5115C45.9643 34.5115 44.5017 33.9057 43.4234 32.8274C42.3451 31.749 41.7392 30.2865 41.7392 28.7615Z" fill="white"/>
</svg>
