<svg width="94" height="94" viewBox="0 0 94 94" fill="none" xmlns="http://www.w3.org/2000/svg">
<path d="M82.2502 70.5H58.0452C57.4603 68.8574 56.5172 67.3655 55.2843 66.1325C54.0514 64.8996 52.5595 63.9565 50.9168 63.3717V50.9167H78.3335C79.3723 50.9167 80.3685 50.504 81.103 49.7695C81.8375 49.035 82.2502 48.0388 82.2502 47C82.2502 45.9612 81.8375 44.965 81.103 44.2305C80.3685 43.496 79.3723 43.0833 78.3335 43.0833H74.4168V19.5833C74.4168 16.467 73.1789 13.4784 70.9753 11.2748C68.7718 9.07129 65.7831 7.83334 62.6668 7.83334H31.3335C28.2172 7.83334 25.2285 9.07129 23.025 11.2748C20.8214 13.4784 19.5835 16.467 19.5835 19.5833V43.0833H15.6668C14.6281 43.0833 13.6318 43.496 12.8973 44.2305C12.1628 44.965 11.7502 45.9612 11.7502 47C11.7502 48.0388 12.1628 49.035 12.8973 49.7695C13.6318 50.504 14.6281 50.9167 15.6668 50.9167H43.0835V63.3717C41.4409 63.9565 39.949 64.8996 38.716 66.1325C37.4831 67.3655 36.54 68.8574 35.9552 70.5H11.7502C10.7114 70.5 9.71518 70.9127 8.98066 71.6472C8.24614 72.3817 7.8335 73.3779 7.8335 74.4167C7.8335 75.4554 8.24614 76.4517 8.98066 77.1862C9.71518 77.9207 10.7114 78.3333 11.7502 78.3333H35.9552C36.7785 80.6017 38.2802 82.5615 40.2563 83.9465C42.2324 85.3316 44.587 86.0745 47.0002 86.0745C49.4133 86.0745 51.7679 85.3316 53.744 83.9465C55.7201 82.5615 57.2219 80.6017 58.0452 78.3333H82.2502C83.2889 78.3333 84.2851 77.9207 85.0197 77.1862C85.7542 76.4517 86.1668 75.4554 86.1668 74.4167C86.1668 73.3779 85.7542 72.3817 85.0197 71.6472C84.2851 70.9127 83.2889 70.5 82.2502 70.5ZM27.4168 43.0833V19.5833C27.4168 18.5446 27.8295 17.5484 28.564 16.8138C29.2985 16.0793 30.2947 15.6667 31.3335 15.6667H62.6668C63.7056 15.6667 64.7018 16.0793 65.4363 16.8138C66.1709 17.5484 66.5835 18.5446 66.5835 19.5833V43.0833H27.4168ZM47.0002 78.3333C46.2255 78.3333 45.4683 78.1036 44.8242 77.6733C44.1801 77.2429 43.6781 76.6312 43.3816 75.9155C43.0852 75.1998 43.0076 74.4123 43.1588 73.6526C43.3099 72.8928 43.6829 72.1949 44.2307 71.6472C44.7784 71.0994 45.4763 70.7264 46.2361 70.5753C46.9958 70.4241 47.7833 70.5017 48.499 70.7981C49.2147 71.0946 49.8264 71.5966 50.2568 72.2407C50.6871 72.8848 50.9168 73.642 50.9168 74.4167C50.9168 75.4554 50.5042 76.4517 49.7697 77.1862C49.0351 77.9207 48.0389 78.3333 47.0002 78.3333Z" fill="white"/>
</svg>
