<svg width="17" height="15" viewBox="0 0 17 15" fill="none" xmlns="http://www.w3.org/2000/svg">
<path d="M16.2139 8.13867C16.4248 7.9043 16.5303 7.63477 16.5303 7.33008C16.5303 7.02539 16.4248 6.75586 16.2139 6.52148L10.5889 0.896484C10.3545 0.685547 10.085 0.580078 9.78027 0.580078C9.47559 0.580078 9.20605 0.685547 8.97168 0.896484C8.76074 1.13086 8.65527 1.40039 8.65527 1.70508C8.65527 2.00977 8.76074 2.2793 8.97168 2.51367L12.6982 6.20508H1.90527C1.57715 6.20508 1.30762 6.31055 1.09668 6.52148C0.885742 6.73242 0.780273 7.00195 0.780273 7.33008C0.780273 7.6582 0.885742 7.92773 1.09668 8.13867C1.30762 8.34961 1.57715 8.45508 1.90527 8.45508H12.6982L8.97168 12.1465C8.76074 12.3809 8.65527 12.6504 8.65527 12.9551C8.65527 13.2598 8.76074 13.5293 8.97168 13.7637C9.20605 13.9746 9.47559 14.0801 9.78027 14.0801C10.085 14.0801 10.3545 13.9746 10.5889 13.7637L16.2139 8.13867Z" fill="black"/>
</svg>
